<?xml version="1.0" encoding="iso-8859-1"?>
<!-- Generator: Adobe Illustrator 19.0.0, SVG Export Plug-In . SVG Version: 6.00 Build 0)  -->
<svg version="1.1" id="Layer_1" xmlns="http://www.w3.org/2000/svg" xmlns:xlink="http://www.w3.org/1999/xlink" x="0px" y="0px"
	 viewBox="0 0 512 512" style="enable-background:new 0 0 512 512;" xml:space="preserve">
<path style="fill:#31CCC9;" d="M413.265,122.935v278.273H351.59c-13.63,0-24.723,11.094-24.723,24.736v61.675H99.089
	c-0.195,0-0.354-0.158-0.354-0.354V135.028H340.46c6.705,0,12.142-5.413,12.191-12.094
	C352.651,122.935,413.265,122.935,413.265,122.935z M352.651,209.15c0-6.729-5.449-12.191-12.191-12.191H171.54
	c-6.742,0-12.191,5.462-12.191,12.191c0,6.742,5.449,12.191,12.191,12.191H340.46C347.201,221.341,352.651,215.891,352.651,209.15z
	 M352.651,277.261c0-6.729-5.449-12.191-12.191-12.191H171.54c-6.742,0-12.191,5.462-12.191,12.191
	c0,6.742,5.449,12.191,12.191,12.191H340.46C347.201,289.452,352.651,284.003,352.651,277.261z M352.651,345.373
	c0-6.729-5.449-12.191-12.191-12.191H171.54c-6.742,0-12.191,5.462-12.191,12.191c0,6.742,5.449,12.191,12.191,12.191H340.46
	C347.201,357.564,352.651,352.114,352.651,345.373z M268.191,413.484c0-6.729-5.462-12.191-12.191-12.191h-84.46
	c-6.742,0-12.191,5.462-12.191,12.191c0,6.742,5.449,12.191,12.191,12.191H256C262.729,425.675,268.191,420.226,268.191,413.484z"/>
<g>
	<path style="fill:#FFDB6F;" d="M413.265,49.057v73.878h-60.614c0-0.037,0-0.061,0-0.098c0-6.729-5.449-12.191-12.191-12.191H98.735
		V49.057c0-0.195,0.158-0.354,0.354-0.354h44.827v12.142c0,6.729,5.462,12.191,12.191,12.191c6.742,0,12.191-5.462,12.191-12.191
		V48.703h42.218v12.142c0,6.729,5.462,12.191,12.191,12.191s12.191-5.462,12.191-12.191V48.703h42.205v12.142
		c0,6.729,5.462,12.191,12.191,12.191s12.191-5.462,12.191-12.191V48.703h42.218v12.142c0,6.729,5.449,12.191,12.191,12.191
		c6.729,0,12.191-5.462,12.191-12.191V48.703h44.827C413.106,48.703,413.265,48.862,413.265,49.057z"/>
	<path style="fill:#FFDB6F;" d="M396.026,425.59l-44.778,44.79v-44.436c0-0.195,0.146-0.354,0.341-0.354L396.026,425.59
		L396.026,425.59z"/>
</g>
<g>
	<path style="fill:#201F2E;" d="M412.911,24.321h-44.826v-12.13C368.085,5.462,362.623,0,355.894,0
		c-6.742,0-12.191,5.462-12.191,12.191v12.13h-42.218v-12.13C301.485,5.462,296.023,0,289.294,0s-12.191,5.462-12.191,12.191v12.13
		h-42.205v-12.13C234.897,5.462,229.436,0,222.706,0s-12.191,5.462-12.191,12.191v12.13h-42.218v-12.13
		C168.298,5.462,162.848,0,156.107,0c-6.729,0-12.191,5.462-12.191,12.191v12.13H99.089c-13.642,0-24.736,11.094-24.736,24.736
		v438.207c0,13.642,11.094,24.736,24.736,24.736h239.969c3.353,0,6.388-1.365,8.595-3.56c0.012,0,0.012-0.012,0.024-0.012
		l86.398-86.398c0.122-0.122,0.219-0.232,0.305-0.329c2.024-2.182,3.267-5.096,3.267-8.302V49.057
		C437.647,35.415,426.553,24.321,412.911,24.321z M351.249,470.38v-44.436c0-0.195,0.146-0.354,0.341-0.354h44.436L351.249,470.38z
		 M413.265,401.208H351.59c-13.63,0-24.723,11.094-24.723,24.736v61.675H99.089c-0.195,0-0.354-0.158-0.354-0.354V135.028H340.46
		c6.705,0,12.142-5.413,12.191-12.094c0-0.037,0-0.061,0-0.098c0-6.729-5.449-12.191-12.191-12.191H98.735V49.057
		c0-0.195,0.158-0.354,0.354-0.354h44.827v12.142c0,6.729,5.462,12.191,12.191,12.191c6.742,0,12.191-5.462,12.191-12.191V48.703
		h42.218v12.142c0,6.729,5.462,12.191,12.191,12.191s12.191-5.462,12.191-12.191V48.703h42.205v12.142
		c0,6.729,5.462,12.191,12.191,12.191s12.191-5.462,12.191-12.191V48.703h42.218v12.142c0,6.729,5.449,12.191,12.191,12.191
		c6.729,0,12.191-5.462,12.191-12.191V48.703h44.827c0.195,0,0.354,0.158,0.354,0.354v73.878V401.208z"/>
	<path style="fill:#201F2E;" d="M340.46,196.959H171.54c-6.742,0-12.191,5.462-12.191,12.191c0,6.742,5.449,12.191,12.191,12.191
		H340.46c6.742,0,12.191-5.449,12.191-12.191C352.651,202.42,347.201,196.959,340.46,196.959z"/>
	<path style="fill:#201F2E;" d="M340.46,265.07H171.54c-6.742,0-12.191,5.462-12.191,12.191c0,6.742,5.449,12.191,12.191,12.191
		H340.46c6.742,0,12.191-5.449,12.191-12.191C352.651,270.532,347.201,265.07,340.46,265.07z"/>
	<path style="fill:#201F2E;" d="M340.46,333.182H171.54c-6.742,0-12.191,5.462-12.191,12.191c0,6.742,5.449,12.191,12.191,12.191
		H340.46c6.742,0,12.191-5.449,12.191-12.191C352.651,338.643,347.201,333.182,340.46,333.182z"/>
	<path style="fill:#201F2E;" d="M256,401.293h-84.46c-6.742,0-12.191,5.462-12.191,12.191c0,6.742,5.449,12.191,12.191,12.191H256
		c6.729,0,12.191-5.449,12.191-12.191C268.191,406.755,262.729,401.293,256,401.293z"/>
</g>
<g>
</g>
<g>
</g>
<g>
</g>
<g>
</g>
<g>
</g>
<g>
</g>
<g>
</g>
<g>
</g>
<g>
</g>
<g>
</g>
<g>
</g>
<g>
</g>
<g>
</g>
<g>
</g>
<g>
</g>
</svg>
